<?xml version="1.0" encoding="UTF-8" standalone="no"?><!DOCTYPE svg PUBLIC "-//W3C//DTD SVG 1.1//EN" "http://www.w3.org/Graphics/SVG/1.1/DTD/svg11.dtd"><svg width="100%" height="100%" viewBox="0 0 594 982" version="1.1" xmlns="http://www.w3.org/2000/svg" xmlns:xlink="http://www.w3.org/1999/xlink" xml:space="preserve" xmlns:serif="http://www.serif.com/" style="fill-rule:evenodd;clip-rule:evenodd;stroke-linecap:round;stroke-linejoin:round;stroke-miterlimit:1.5;"><g><g id="border"><path d="M586.06,305.652l0,460.156l-578.619,0l-0,-460.156" style="fill:#ebebeb;fill-opacity:0;stroke:#291e0d;stroke-width:14.88px;"/><path d="M7.441,305.652c0,-164.587 129.635,-298.211 289.31,-298.211c159.674,0 289.31,133.624 289.31,298.211" style="fill:#291e0d;fill-opacity:0;stroke:#291e0d;stroke-width:14.88px;stroke-linecap:butt;"/></g><path id="star" d="M296.75,104.64l0,25.929l12.331,-16.971l-12.331,16.971l24.662,-8.012l-24.662,8.012l19.952,6.482l-19.952,-6.482l15.242,20.977l-15.242,-20.977l0,20.977l0,-20.977l-15.242,20.977l15.242,-20.977l-19.952,6.482l19.952,-6.482l-24.662,-8.012l24.662,8.012l-12.331,-16.971l12.331,16.971l0,-25.929Z" style="fill:#291e0d;stroke:#291e0d;stroke-width:9.92px;"/><g id="bowl"><path d="M554.411,439.171c0.962,153.542 -89.285,214.523 -191.683,233.569l-133.344,-1.097c-95.356,-22.243 -186.917,-79.036 -189.301,-232.472l514.328,0Z" style="fill:#ebebeb;fill-opacity:0;stroke:#291e0d;stroke-width:14.88px;"/><path d="M204.382,439.171l-122.629,0c-0,-33.86 27.451,-61.309 61.315,-61.309c33.863,0 61.315,27.449 61.315,61.309Z" style="fill:#ebebeb;fill-opacity:0;stroke:#291e0d;stroke-width:14.88px;"/><path d="M54.369,438.575c-0,-48.653 39.445,-88.094 88.103,-88.094c32.733,0 61.297,16.956 76.487,43.452" style="fill:#ebebeb;fill-opacity:0;stroke:#291e0d;stroke-width:14.88px;"/><path d="M176.106,439.171l-66.077,0c-0,-18.245 14.792,-33.035 33.038,-33.035c18.247,0 33.038,14.79 33.038,33.035Z" style="fill:#ebebeb;fill-opacity:0;stroke:#291e0d;stroke-width:14.88px;"/><path d="M359.156,438.575l-122.629,0c-0,-33.86 27.451,-61.309 61.315,-61.309c33.863,0 61.315,27.449 61.315,61.309Z" style="fill:#ebebeb;fill-opacity:0;stroke:#291e0d;stroke-width:14.88px;"/><path d="M209.144,437.98c-0,-48.653 39.445,-88.094 88.103,-88.094c48.658,0 88.103,39.441 88.103,88.094" style="fill:#ebebeb;fill-opacity:0;stroke:#291e0d;stroke-width:14.88px;"/><path d="M330.88,438.575l-66.077,0c-0,-18.245 14.792,-33.035 33.038,-33.035c18.247,0 33.038,14.79 33.038,33.035Z" style="fill:#ebebeb;fill-opacity:0;stroke:#291e0d;stroke-width:14.88px;"/><path d="M513.931,439.171l-122.629,0c-0,-33.86 27.451,-61.309 61.315,-61.309c33.863,0 61.315,27.449 61.315,61.309Z" style="fill:#ebebeb;fill-opacity:0;stroke:#291e0d;stroke-width:14.88px;"/><path d="M376.053,393.933c15.316,-26.003 43.604,-43.452 75.969,-43.452c48.658,0 88.103,39.441 88.103,88.094" style="fill:#ebebeb;fill-opacity:0;stroke:#291e0d;stroke-width:14.88px;"/><path d="M485.655,439.171l-66.077,0c-0,-18.245 14.792,-33.035 33.038,-33.035c18.247,0 33.038,14.79 33.038,33.035Z" style="fill:#ebebeb;fill-opacity:0;stroke:#291e0d;stroke-width:14.88px;"/><path d="M57.059,524.884l128.29,0" style="fill:none;stroke:#291e0d;stroke-width:9.58px;"/><path d="M63.983,549.884l100.5,0" style="fill:none;stroke:#291e0d;stroke-width:9.58px;"/><path d="M76.611,574.884l63.305,0" style="fill:none;stroke:#291e0d;stroke-width:9.58px;"/></g><g id="salt"><ellipse cx="142.931" cy="273.341" rx="3.931" ry="3.931" style="fill:#291e0d;stroke:#291e0d;stroke-width:9.92px;"/><ellipse cx="191.092" cy="235.995" rx="3.931" ry="3.931" style="fill:#291e0d;stroke:#291e0d;stroke-width:9.92px;"/><ellipse cx="245.15" cy="273.341" rx="3.931" ry="3.931" style="fill:#291e0d;stroke:#291e0d;stroke-width:9.92px;"/><ellipse cx="245.15" cy="204.055" rx="3.931" ry="3.931" style="fill:#291e0d;stroke:#291e0d;stroke-width:9.92px;"/><ellipse cx="295.601" cy="308.721" rx="3.931" ry="3.931" style="fill:#291e0d;stroke:#291e0d;stroke-width:9.92px;"/><ellipse cx="342.945" cy="273.341" rx="3.931" ry="3.931" style="fill:#291e0d;stroke:#291e0d;stroke-width:9.92px;"/><ellipse cx="399.461" cy="308.721" rx="3.931" ry="3.931" style="fill:#291e0d;stroke:#291e0d;stroke-width:9.92px;"/><ellipse cx="450.57" cy="273.341" rx="3.931" ry="3.931" style="fill:#291e0d;stroke:#291e0d;stroke-width:9.92px;"/><ellipse cx="399.461" cy="235.995" rx="3.931" ry="3.931" style="fill:#291e0d;stroke:#291e0d;stroke-width:9.92px;"/><ellipse cx="342.945" cy="204.055" rx="3.931" ry="3.931" style="fill:#291e0d;stroke:#291e0d;stroke-width:9.92px;"/><circle cx="295.601" cy="235.995" r="3.931" style="fill:#291e0d;stroke:#291e0d;stroke-width:9.92px;"/><ellipse cx="191.092" cy="308.721" rx="3.931" ry="3.931" style="fill:#291e0d;stroke:#291e0d;stroke-width:9.92px;"/></g><g id="name"><path d="M83.908,981.284c-8.178,0 -14.88,-1.855 -20.105,-5.565c-5.225,-3.71 -9.352,-8.518 -12.381,-14.424l-1.59,0l-5.225,17.718l-38.166,0l0,-10.903l1.59,0c2.878,0 5.566,-0.379 8.065,-1.136c2.499,-0.757 4.506,-2.309 6.02,-4.657c1.515,-2.347 2.272,-5.792 2.272,-10.336l0,-119.484c0,-4.392 -0.757,-7.685 -2.272,-9.881c-1.515,-2.196 -3.521,-3.634 -6.02,-4.316c-2.499,-0.681 -5.263,-1.022 -8.292,-1.022l-1.363,0l0,-10.903l46.344,0l0,40.207c0,2.574 -0.076,5.717 -0.227,9.427c-0.151,3.71 -0.303,7.269 -0.454,10.676c-0.151,3.407 -0.379,6.171 -0.682,8.291l1.136,0c3.029,-6.057 7.08,-10.941 12.154,-14.652c5.074,-3.71 11.7,-5.565 19.878,-5.565c13.631,0 24.081,5.035 31.35,15.106c7.27,10.071 10.904,26.009 10.904,47.816c0,14.689 -1.666,26.729 -4.998,36.118c-3.332,9.389 -8.178,16.317 -14.539,20.785c-6.361,4.467 -14.161,6.701 -23.399,6.701Zm-7.27,-15.447c7.724,0 13.252,-4.165 16.584,-12.494c3.332,-8.329 4.998,-20.293 4.998,-35.891c0,-16.052 -1.666,-27.978 -4.998,-35.777c-3.332,-7.799 -8.936,-11.699 -16.811,-11.699c-9.087,0 -15.334,3.975 -18.742,11.926c-3.408,7.95 -5.111,19.876 -5.111,35.777c0,10.298 0.719,19.043 2.158,26.236c1.439,7.193 3.938,12.645 7.497,16.355c3.559,3.71 8.368,5.565 14.426,5.565Z" style="fill:#291e0d;fill-rule:nonzero;"/><path d="M130.404,979.013l0,-10.903l0.909,0c3.18,0 5.982,-0.379 8.406,-1.136c2.423,-0.757 4.354,-2.309 5.793,-4.657c1.439,-2.347 2.158,-5.868 2.158,-10.563l0,-68.147c0,-4.543 -0.682,-7.913 -2.045,-10.108c-1.363,-2.196 -3.218,-3.634 -5.566,-4.316c-2.347,-0.681 -5.036,-1.022 -8.065,-1.022l-0.909,0l0,-10.903l39.302,0l4.089,22.488l0.909,0c2.12,-4.997 4.468,-9.389 7.042,-13.175c2.575,-3.786 5.793,-6.701 9.655,-8.745c3.862,-2.044 8.671,-3.067 14.426,-3.067c7.875,0 13.593,1.704 17.152,5.111c3.559,3.407 5.339,7.913 5.339,13.516c0,5.906 -2.045,10.411 -6.134,13.516c-4.089,3.104 -10.072,4.657 -17.947,4.657c0,-4.24 -0.303,-7.685 -0.909,-10.336c-0.606,-2.65 -1.628,-4.657 -3.067,-6.02c-1.439,-1.363 -3.597,-2.044 -6.475,-2.044c-3.18,0 -5.944,1.401 -8.292,4.202c-2.347,2.802 -4.278,6.436 -5.793,10.903c-1.515,4.467 -2.613,9.238 -3.294,14.311c-0.682,5.073 -1.022,9.881 -1.022,14.424l0,35.891c0,4.392 0.682,7.685 2.045,9.881c1.363,2.196 3.218,3.634 5.566,4.316c2.347,0.681 4.96,1.022 7.838,1.022l6.134,0l0,10.903l-67.244,0Z" style="fill:#291e0d;fill-rule:nonzero;"/><path d="M258.228,981.284c-6.209,0 -11.775,-1.325 -16.697,-3.975c-4.922,-2.65 -8.86,-6.701 -11.813,-12.153c-2.953,-5.452 -4.43,-12.342 -4.43,-20.671c0,-12.266 3.938,-21.277 11.813,-27.032c7.875,-5.755 19.764,-8.935 35.667,-9.541l17.493,-0.681l0,-13.175c0,-5.603 -0.416,-10.373 -1.249,-14.311c-0.833,-3.937 -2.423,-7.004 -4.771,-9.2c-2.347,-2.196 -5.793,-3.294 -10.337,-3.294c-4.089,0 -7.308,1.022 -9.655,3.067c-2.347,2.044 -3.976,4.884 -4.884,8.518c-0.909,3.634 -1.363,8.026 -1.363,13.175c-8.027,0 -14.009,-1.174 -17.947,-3.521c-3.938,-2.347 -5.907,-6.095 -5.907,-11.244c0,-5.3 1.855,-9.616 5.566,-12.948c3.711,-3.332 8.746,-5.792 15.107,-7.383c6.361,-1.59 13.403,-2.385 21.127,-2.385c14.236,0 24.876,2.953 31.918,8.859c7.042,5.906 10.564,15.977 10.564,30.212l0,58.379c0,4.089 0.416,7.307 1.249,9.654c0.833,2.347 2.196,4.013 4.089,4.997c1.893,0.984 4.43,1.477 7.61,1.477l0.682,0l0,10.903l-35.894,0l-4.089,-17.491l-1.817,0c-3.029,4.24 -5.944,7.837 -8.746,10.79c-2.802,2.953 -5.982,5.187 -9.541,6.701c-3.559,1.514 -8.141,2.272 -13.744,2.272Zm9.541,-14.992c4.695,0 8.708,-1.287 12.04,-3.862c3.332,-2.574 5.907,-6.171 7.724,-10.79c1.817,-4.619 2.726,-9.957 2.726,-16.014l0,-17.718l-10.677,0.681c-6.361,0.303 -11.397,1.514 -15.107,3.634c-3.711,2.12 -6.323,5.111 -7.838,8.973c-1.515,3.862 -2.272,8.67 -2.272,14.424c0,4.392 0.454,8.14 1.363,11.244c0.909,3.104 2.385,5.452 4.43,7.042c2.045,1.59 4.581,2.385 7.61,2.385Z" style="fill:#291e0d;fill-rule:nonzero;"/><path d="M331.531,979.013l0,-10.903l2.726,0c3.029,0 5.717,-0.416 8.065,-1.249c2.347,-0.833 4.203,-2.385 5.566,-4.657c1.363,-2.272 2.045,-5.603 2.045,-9.995l0,-68.601c0,-4.392 -0.682,-7.685 -2.045,-9.881c-1.363,-2.196 -3.18,-3.672 -5.452,-4.43c-2.272,-0.757 -4.922,-1.136 -7.951,-1.136l-2.272,0l0,-10.903l45.89,0l0,94.497c0,4.543 0.682,7.988 2.045,10.336c1.363,2.347 3.256,3.937 5.679,4.77c2.423,0.833 5.149,1.249 8.178,1.249l2.499,0l0,10.903l-64.973,0Zm31.578,-143.562c-4.544,0 -8.368,-1.174 -11.472,-3.521c-3.105,-2.347 -4.657,-6.171 -4.657,-11.471c0,-5.452 1.552,-9.313 4.657,-11.585c3.105,-2.272 6.929,-3.407 11.472,-3.407c4.392,0 8.178,1.136 11.359,3.407c3.18,2.272 4.771,6.133 4.771,11.585c0,5.3 -1.59,9.124 -4.771,11.471c-3.18,2.347 -6.967,3.521 -11.359,3.521Z" style="fill:#291e0d;fill-rule:nonzero;"/><path d="M438.077,981.284c-8.936,0 -16.357,-0.984 -22.263,-2.953c-5.907,-1.969 -10.261,-4.846 -13.063,-8.632c-2.802,-3.786 -4.203,-8.253 -4.203,-13.402c0,-3.937 0.833,-7.08 2.499,-9.427c1.666,-2.347 3.786,-4.013 6.361,-4.997c2.575,-0.984 5.225,-1.477 7.951,-1.477c0,8.632 1.931,15.56 5.793,20.785c3.862,5.225 9.806,7.837 17.833,7.837c7.118,0 12.419,-1.704 15.902,-5.111c3.483,-3.407 5.225,-7.761 5.225,-13.061c0,-3.483 -0.795,-6.398 -2.385,-8.745c-1.59,-2.347 -4.203,-4.619 -7.838,-6.815c-3.635,-2.196 -8.633,-4.581 -14.994,-7.155c-7.875,-3.332 -14.35,-6.663 -19.424,-9.995c-5.074,-3.332 -8.86,-7.269 -11.359,-11.812c-2.499,-4.543 -3.748,-10.298 -3.748,-17.264c0,-11.358 3.938,-19.914 11.813,-25.669c7.875,-5.755 18.326,-8.632 31.35,-8.632c7.875,0 14.388,1.022 19.537,3.067c5.149,2.044 8.973,4.695 11.472,7.95c2.499,3.256 3.748,6.701 3.748,10.336c0,4.543 -1.515,8.064 -4.544,10.563c-3.029,2.499 -7.573,3.748 -13.631,3.748c0,-7.572 -1.704,-13.402 -5.111,-17.491c-3.408,-4.089 -8.216,-6.133 -14.426,-6.133c-5.907,0 -10.337,1.439 -13.29,4.316c-2.953,2.877 -4.43,6.739 -4.43,11.585c0,5.3 1.893,9.427 5.679,12.38c3.786,2.953 10.45,6.398 19.992,10.336c7.421,2.877 13.668,5.982 18.742,9.313c5.074,3.332 8.898,7.307 11.472,11.926c2.575,4.619 3.862,10.336 3.862,17.15c0,11.661 -3.9,20.823 -11.7,27.486c-7.8,6.663 -18.742,9.995 -32.827,9.995Z" style="fill:#291e0d;fill-rule:nonzero;"/><path d="M539.852,981.284c-17.265,0 -30.404,-5.452 -39.415,-16.355c-9.011,-10.903 -13.517,-26.274 -13.517,-46.113c0,-21.201 4.43,-37.216 13.29,-48.043c8.86,-10.828 21.317,-16.242 37.371,-16.242c14.842,0 26.466,4.619 34.872,13.857c8.406,9.238 12.608,22.867 12.608,40.888l0,10.676l-69.516,0c0.303,15.901 2.991,27.524 8.065,34.868c5.074,7.345 12.533,11.017 22.377,11.017c7.27,0 13.252,-1.779 17.947,-5.338c4.695,-3.559 8.254,-7.761 10.677,-12.607c1.666,0.606 3.143,1.628 4.43,3.067c1.287,1.439 1.931,3.369 1.931,5.792c0,3.483 -1.439,7.155 -4.316,11.017c-2.878,3.862 -7.345,7.08 -13.403,9.654c-6.058,2.574 -13.858,3.862 -23.399,3.862Zm16.811,-74.507c0,-11.812 -1.439,-21.239 -4.316,-28.281c-2.878,-7.042 -7.724,-10.563 -14.539,-10.563c-6.512,0 -11.662,3.332 -15.448,9.995c-3.786,6.663 -5.907,16.279 -6.361,28.849l40.665,0Z" style="fill:#291e0d;fill-rule:nonzero;"/></g><g id="table"><path d="M8.19,618.786l105.525,-0" style="fill:#ebebeb;fill-opacity:0;stroke:#291e0d;stroke-width:9.58px;"/><path d="M586.81,618.786l-100.763,0" style="fill:none;stroke:#291e0d;stroke-width:9.58px;"/><path d="M587.31,620.675l-144.881,144.868" style="fill:none;stroke:#291e0d;stroke-width:9.92px;"/><path d="M586.81,711.797l-54.017,54.012" style="fill:none;stroke:#291e0d;stroke-width:9.92px;"/><path d="M497.454,620.675l-145.147,145.134" style="fill:none;stroke:#291e0d;stroke-width:9.92px;"/><path d="M348.537,672.74l-93.078,92.803" style="fill:#ebebeb;fill-opacity:0;stroke:#291e0d;stroke-width:9.92px;"/><path d="M251.728,672.74l48.27,48.265" style="fill:none;stroke:#291e0d;stroke-width:9.92px;"/><path d="M104.695,620.056l145.766,145.753" style="fill:none;stroke:#291e0d;stroke-width:9.92px;"/><path d="M14.668,620.056l145.5,145.487" style="fill:none;stroke:#291e0d;stroke-width:9.92px;"/><path d="M8.19,711.835l53.978,53.973" style="fill:none;stroke:#291e0d;stroke-width:9.92px;"/></g></g></svg>